<?xml version="1.0" encoding="UTF-8"?>
<svg version="1.1" xmlns="http://www.w3.org/2000/svg" width="710" height="587">
<path d="M0 0 C1.75253082 -0.0076664 1.75253082 -0.0076664 3.54046631 -0.01548767 C7.39234578 -0.0293575 11.24404583 -0.02842891 15.09594727 -0.02612305 C17.10099782 -0.02902798 19.10604844 -0.0319379 21.11109787 -0.03552979 C27.41083476 -0.04660284 33.71051201 -0.04707469 40.01025391 -0.04101562 C46.49333439 -0.0349758 52.97619786 -0.04729196 59.45924133 -0.06858569 C65.04079166 -0.08623936 70.62227313 -0.09219718 76.20385033 -0.08894795 C79.5307237 -0.08714108 82.8574084 -0.0910382 86.18426323 -0.10366249 C89.89644902 -0.11602127 93.60813451 -0.10923804 97.3203125 -0.09765625 C98.95783226 -0.10912186 98.95783226 -0.10912186 100.62843323 -0.12081909 C108.74260455 -0.06496465 115.52265929 1.36684577 122.22485352 6.2746582 C123.99047852 8.54418945 123.99047852 8.54418945 125.47485352 11.0871582 C125.97500977 11.91860352 126.47516602 12.75004883 126.99047852 13.60668945 C129.78322544 19.64291145 129.37788825 26.06908147 129.34985352 32.5871582 C129.3537207 33.50561523 129.35758789 34.42407227 129.36157227 35.37036133 C129.35963867 36.6784375 129.35963867 36.6784375 129.35766602 38.01293945 C129.35653809 38.80740479 129.35541016 39.60187012 129.35424805 40.42041016 C129.22485352 42.2746582 129.22485352 42.2746582 128.22485352 43.2746582 C125.09611831 43.38411614 121.98865139 43.42889983 118.85913086 43.43237305 C117.87536469 43.43745377 116.89159851 43.44253448 115.87802124 43.44776917 C113.73305539 43.45850025 111.58807815 43.4671096 109.44309616 43.4738884 C106.04693439 43.48564367 102.65090174 43.50508956 99.25479126 43.52700806 C89.59560454 43.58872471 79.93642889 43.64262165 70.27709961 43.67602539 C64.37548521 43.69698732 58.47410238 43.73230938 52.57262039 43.77678299 C50.32323563 43.79093797 48.07380985 43.79966429 45.82438278 43.80283737 C42.67165734 43.8077535 39.51954413 43.83093238 36.36694336 43.8581543 C35.43990601 43.85514816 34.51286865 43.85214203 33.55773926 43.8490448 C26.61077073 43.93798841 21.8052402 45.03832308 16.41235352 49.7121582 C13.32273647 53.33142388 11.97961658 55.92472583 11.95310974 60.69718933 C11.94339142 61.57631485 11.9336731 62.45544037 11.92366028 63.36120605 C11.92307114 64.31773071 11.92248199 65.27425537 11.921875 66.25976562 C11.909216 67.77978935 11.909216 67.77978935 11.89630127 69.33052063 C11.87050719 72.68039412 11.85838122 76.03017957 11.84594727 79.38012695 C11.8297777 81.70372724 11.81259828 84.0273207 11.79444885 86.35090637 C11.74874007 92.46773128 11.71394121 98.58456518 11.68225098 104.70147705 C11.630387 114.50392832 11.56542045 124.30627973 11.49403572 134.10860634 C11.47112121 137.54156731 11.45490461 140.9745154 11.4393158 144.40751648 C11.42591585 146.49759057 11.41230164 148.58766331 11.3984375 150.67773438 C11.39451744 152.1216304 11.39451744 152.1216304 11.39051819 153.59469604 C11.38017044 154.90069511 11.38017044 154.90069511 11.36961365 156.233078 C11.36383128 157.37430005 11.36383128 157.37430005 11.35793209 158.53857708 C11.22485352 160.2746582 11.22485352 160.2746582 10.22485352 161.2746582 C6.58798031 161.5862183 2.93590165 161.55335448 -0.71264648 161.5871582 C-1.72133789 161.61616211 -2.7300293 161.64516602 -3.76928711 161.67504883 C-11.83168065 161.74253828 -18.76962593 160.44569531 -25.21264648 155.3449707 C-25.72827148 154.70301758 -26.24389648 154.06106445 -26.77514648 153.3996582 C-27.31139648 152.76286133 -27.84764648 152.12606445 -28.40014648 151.4699707 C-32.39866453 145.08597314 -32.07726352 138.56305232 -32.08154297 131.27758789 C-32.08986649 130.07357834 -32.09819 128.86956879 -32.10676575 127.6290741 C-32.12669391 124.33750912 -32.13749948 121.04609086 -32.14259219 117.75447369 C-32.14624535 115.69364778 -32.1524904 113.63284584 -32.15959358 111.57202911 C-32.18406327 104.36986736 -32.19713423 97.16777736 -32.20068359 89.96557617 C-32.20431518 83.27283531 -32.23418939 76.58055404 -32.27608818 69.88795352 C-32.31088731 64.12550008 -32.3262337 58.36319824 -32.32692963 52.60064054 C-32.3277193 49.16625355 -32.33631294 45.7323351 -32.36492729 42.29805756 C-32.39187919 38.46140404 -32.38700288 34.62600751 -32.37451172 30.78930664 C-32.38934601 29.66584335 -32.4041803 28.54238007 -32.41946411 27.38487244 C-32.3516731 20.04697601 -31.00690481 14.36766042 -26.77514648 8.2746582 C-18.82384406 0.50934302 -10.65681676 -0.02413942 0 0 Z " fill="#222222" transform="translate(265.775146484375,100.725341796875)"/>
<path d="M0 0 C4.16642697 -0.11703447 8.3324259 -0.18753101 12.5 -0.25 C13.67304688 -0.28351563 14.84609375 -0.31703125 16.0546875 -0.3515625 C24.17677141 -0.44282187 29.79937178 0.37513356 36.0234375 5.74609375 C36.69246094 6.58333984 36.69246094 6.58333984 37.375 7.4375 C38.06722656 8.27087891 38.06722656 8.27087891 38.7734375 9.12109375 C41.38047258 13.11467296 42.25033687 16.67071172 42.26742554 21.40681458 C42.28022049 23.01530022 42.28022049 23.01530022 42.29327393 24.65628052 C42.29191437 26.40580521 42.29191437 26.40580521 42.29052734 28.19067383 C42.29724457 29.42701065 42.30396179 30.66334747 42.31088257 31.93714905 C42.32661251 35.32165497 42.33323686 38.70591546 42.33451414 42.09044099 C42.33593795 44.20769626 42.34021191 46.32492599 42.34550858 48.44217491 C42.36400124 55.83654787 42.37218028 63.23084882 42.37060547 70.62524414 C42.36940474 77.50481937 42.39049537 84.38408054 42.4220928 91.26357633 C42.44829541 97.18054097 42.45897108 103.09740329 42.45769465 109.01442546 C42.45718612 112.54369862 42.46280823 116.07269264 42.48405075 119.60190773 C42.50711833 123.54177598 42.49788781 127.48121792 42.48583984 131.42114258 C42.49707886 132.58141968 42.50831787 133.74169678 42.51989746 134.93713379 C42.46028656 142.61702824 41.41585622 148.04158049 36.25390625 154.0234375 C35.69574219 154.46945312 35.13757813 154.91546875 34.5625 155.375 C34.00691406 155.83648437 33.45132813 156.29796875 32.87890625 156.7734375 C28.88532704 159.38047258 25.32928828 160.25033687 20.59318542 160.26742554 C18.98469978 160.28022049 18.98469978 160.28022049 17.34371948 160.29327393 C16.17736969 160.29236755 15.0110199 160.29146118 13.80932617 160.29052734 C12.57298935 160.29724457 11.33665253 160.30396179 10.06285095 160.31088257 C6.67834503 160.32661251 3.29408454 160.33323686 -0.09044099 160.33451414 C-2.20769626 160.33593795 -4.32492599 160.34021191 -6.44217491 160.34550858 C-13.83654787 160.36400124 -21.23084882 160.37218028 -28.62524414 160.37060547 C-35.50481937 160.36940474 -42.38408054 160.39049537 -49.26357633 160.4220928 C-55.18054097 160.44829541 -61.09740329 160.45897108 -67.01442546 160.45769465 C-70.54369862 160.45718612 -74.07269264 160.46280823 -77.60190773 160.48405075 C-81.54177598 160.50711833 -85.48121792 160.49788781 -89.42114258 160.48583984 C-90.58141968 160.49707886 -91.74169678 160.50831787 -92.93713379 160.51989746 C-100.61702824 160.46028656 -106.04158049 159.41585622 -112.0234375 154.25390625 C-112.46945312 153.69574219 -112.91546875 153.13757813 -113.375 152.5625 C-113.83648437 152.00691406 -114.29796875 151.45132813 -114.7734375 150.87890625 C-117.57485122 146.58756867 -118.24540454 142.9085605 -118.1953125 137.82421875 C-118.18886719 136.66728516 -118.18242187 135.51035156 -118.17578125 134.31835938 C-118.15902344 133.12017578 -118.14226562 131.92199219 -118.125 130.6875 C-118.11146484 128.8612207 -118.11146484 128.8612207 -118.09765625 126.99804688 C-118.07413037 123.99849726 -118.04125653 120.99934956 -118 118 C-116.78192657 117.99413376 -115.56385315 117.98826752 -114.30886841 117.98222351 C-102.80382964 117.92489613 -91.29897807 117.85208217 -79.79413033 117.76428509 C-73.88002014 117.71964554 -67.96597783 117.68037517 -62.05175781 117.65356445 C-56.33929395 117.62746765 -50.62709216 117.58701991 -44.91479111 117.53681374 C-42.74045966 117.52018815 -40.56608293 117.50864715 -38.39169693 117.50238609 C-35.33523634 117.49269816 -32.27943978 117.4645826 -29.22314453 117.43237305 C-28.33337418 117.43380814 -27.44360382 117.43524323 -26.52687073 117.4367218 C-19.87380203 117.33820706 -12.20511087 116.82153372 -7.01844978 112.25559521 C-3.55014509 108.4041515 -1.88653574 105.21333322 -1.84851074 99.95915222 C-1.84016708 99.13911209 -1.83182343 98.31907196 -1.82322693 97.47418213 C-1.81904251 96.57802185 -1.81485809 95.68186157 -1.81054688 94.75854492 C-1.80225357 93.81189468 -1.79396027 92.86524445 -1.78541565 91.88990784 C-1.76800854 89.83228926 -1.75284353 87.7746508 -1.73963928 85.71700096 C-1.71861519 82.45958157 -1.69159013 79.20226139 -1.66296387 75.94490051 C-1.60324399 69.02580518 -1.55112535 62.10666346 -1.5 55.1875 C-1.44073737 47.1803826 -1.37836648 39.17331376 -1.30812073 31.16628456 C-1.28158968 27.95903201 -1.26074601 24.7517745 -1.2401123 21.54447937 C-1.22350281 19.57286345 -1.2066304 17.60124973 -1.18945312 15.62963867 C-1.18526871 14.73955109 -1.18108429 13.8494635 -1.17677307 12.93240356 C-1.13226926 8.51331183 -0.88556219 4.35044327 0 0 Z " fill="#1F1F1F" transform="translate(430,179)"/>
<path d="M0 0 C13.86 0 27.72 0 42 0 C42.33 29.7 42.66 59.4 43 90 C56.2 76.8 69.4 63.6 83 50 C78.05 49.67 73.1 49.34 68 49 C68.33 47.35 68.66 45.7 69 44 C82.2 44 95.4 44 109 44 C109 45.65 109 47.3 109 49 C107.55947266 48.70802734 107.55947266 48.70802734 106.08984375 48.41015625 C99.44924445 47.65685246 94.44938173 48.2176426 88.92138672 52.24023438 C85.56083722 55.08684959 82.44794319 58.16094816 79.375 61.3125 C78.58861649 62.10939743 78.58861649 62.10939743 77.78634644 62.9223938 C73.08830828 67.70776271 73.08830828 67.70776271 69 73 C69.09511348 76.29674959 70.85989949 78.55366044 72.70703125 81.21484375 C73.51841553 82.39796143 73.51841553 82.39796143 74.34619141 83.60498047 C74.89194824 84.39533691 75.43770508 85.18569336 76 86 C76.94463003 87.41582316 77.88614315 88.83373187 78.82421875 90.25390625 C81.35544824 94.06674319 83.89904255 97.87118835 86.44628906 101.67333984 C87.91790131 103.87705837 89.37739448 106.08840179 90.8359375 108.30078125 C102.47390291 125.93287308 102.47390291 125.93287308 120 137 C120 138.65 120 140.3 120 142 C112.40709873 142.28296526 104.93580213 141.85531844 97.375 141.1875 C96.07042847 141.08236084 96.07042847 141.08236084 94.73950195 140.97509766 C84.77869874 140.03467319 76.50904728 137.81872211 69 131 C68.26463013 130.35212524 68.26463013 130.35212524 67.5144043 129.69116211 C61.68186231 124.25688292 57.52377354 117.68811632 53.1875 111.0625 C51.68885217 108.77708576 50.18120585 106.49853274 48.66796875 104.22265625 C47.68219849 102.71844116 47.68219849 102.71844116 46.67651367 101.18383789 C46.12326416 100.46317139 45.57001465 99.74250488 45 99 C44.34 99 43.68 99 43 99 C42.67 111.54 42.34 124.08 42 137 C45.63 137 49.26 137 53 137 C53 138.65 53 140.3 53 142 C35.51 142 18.02 142 0 142 C-0.33 140.68 -0.66 139.36 -1 138 C-0.67 137.67 -0.34 137.34 0 137 C3.3 137 6.6 137 10 137 C10 93.44 10 49.88 10 5 C6.37 5 2.74 5 -1 5 C-0.67 3.35 -0.34 1.7 0 0 Z " fill="#222222" transform="translate(359,386)"/>
<path d="M0 0 C1.29781906 -0.00315216 2.59563812 -0.00630432 3.93278503 -0.009552 C5.34492019 -0.00776262 6.75705503 -0.00571177 8.16918945 -0.00341797 C9.61839311 -0.00409165 11.06759666 -0.00506222 12.51679993 -0.00631714 C15.54880859 -0.00778966 18.58078774 -0.00565294 21.61279297 -0.00097656 C25.50696743 0.00473576 29.4010732 0.00142944 33.29524517 -0.00454903 C36.28484113 -0.00815366 39.27442066 -0.00701678 42.26401711 -0.00442123 C43.70060039 -0.00375248 45.13718515 -0.00457859 46.57376671 -0.00690079 C48.5752192 -0.00942731 50.5766769 -0.00489682 52.578125 0 C53.71855759 0.00079559 54.85899017 0.00159119 56.03398132 0.00241089 C58.5949707 0.12939453 58.5949707 0.12939453 59.5949707 1.12939453 C59.70996125 3.03952525 59.75464022 4.95392132 59.77197266 6.86743164 C59.79122551 8.71086403 59.79122551 8.71086403 59.81086731 10.59153748 C59.81904015 11.94660031 59.82648283 13.30166771 59.83325195 14.65673828 C59.83732748 15.33839113 59.84140301 16.02004398 59.84560204 16.72235298 C59.86650031 20.33890609 59.88077862 23.95542098 59.89013672 27.57202148 C59.90113436 31.28740662 59.93544439 35.00218167 59.97530842 38.71735287 C60.00163323 41.58894358 60.00984307 44.46039347 60.0134182 47.33209419 C60.01825323 48.69987614 60.02977805 50.06765313 60.04845619 51.43531609 C60.16109361 60.2391282 60.04957029 69.11211883 53.90327454 76.03477478 C45.80165912 83.69310131 37.36375495 83.55600908 26.7277832 83.45751953 C25.28286944 83.45445828 23.83795271 83.45258494 22.39303589 83.45184326 C19.37885076 83.44725978 16.36493573 83.43290234 13.35083008 83.41064453 C9.48026789 83.38221084 5.60991647 83.3714157 1.73925972 83.36696243 C-1.23747882 83.36281696 -4.21417452 83.35300932 -7.19089127 83.34108734 C-8.61909772 83.33537951 -10.04730829 83.3306225 -11.47552109 83.32682037 C-13.46230279 83.31998089 -15.44905362 83.30545498 -17.43579102 83.29052734 C-18.56717499 83.28369934 -19.69855896 83.27687134 -20.86422729 83.26983643 C-23.4050293 83.12939453 -23.4050293 83.12939453 -24.4050293 82.12939453 C-24.51471669 80.24444937 -24.5541367 78.35538075 -24.56616211 76.46728516 C-24.57576965 75.25512329 -24.5853772 74.04296143 -24.59527588 72.79406738 C-24.60012679 71.45792834 -24.60440489 70.12178712 -24.6081543 68.78564453 C-24.61390722 67.41857908 -24.61966494 66.05151365 -24.62542725 64.68444824 C-24.63595351 61.80932235 -24.64178381 58.9342245 -24.64526367 56.05908203 C-24.65071637 52.39527404 -24.67466717 48.73184375 -24.70323563 45.06815338 C-24.7219814 42.238637 -24.72707416 39.40920882 -24.72859955 36.57963562 C-24.73305885 34.5784778 -24.75165937 32.5773674 -24.77056885 30.57629395 C-24.74677759 20.76695165 -23.80882497 12.89904733 -16.9519043 5.56689453 C-11.72362025 0.70828713 -6.90866942 0.00480959 0 0 Z " fill="#212121" transform="translate(335.405029296875,178.87060546875)"/>
<path d="M0 0 C1.66095703 -0.02416992 1.66095703 -0.02416992 3.35546875 -0.04882812 C14.03907555 -0.05510521 24.35164756 1.63531812 32.7421875 8.66796875 C39.9861246 15.96596508 41.55472444 26.911153 41.67935181 36.78765869 C41.6717836 38.41643951 41.6717836 38.41643951 41.6640625 40.078125 C41.67585541 41.23697205 41.68764832 42.39581909 41.69979858 43.58978271 C41.73472407 47.24749548 41.7441954 50.90463492 41.75 54.5625 C41.7664143 58.23447486 41.78856974 61.90620017 41.82162476 65.57806396 C41.84105506 67.84968641 41.85061166 70.12142284 41.84854126 72.39312744 C41.50475521 82.47882693 41.50475521 82.47882693 45.125 91.3125 C46.63969448 91.54442865 48.16254562 91.72465238 49.6875 91.875 C50.51378906 91.95878906 51.34007812 92.04257812 52.19140625 92.12890625 C52.82949219 92.18949219 53.46757813 92.25007812 54.125 92.3125 C53.88671875 94.20703125 53.88671875 94.20703125 53.125 96.3125 C51.26953125 97.32421875 51.26953125 97.32421875 48.9375 98 C47.80248047 98.34611328 47.80248047 98.34611328 46.64453125 98.69921875 C36.89944648 101.07127814 25.24311577 102.31098515 16.125 97.3125 C13.83986141 95.44930608 12.06823217 93.55469096 10.125 91.3125 C9.59132813 91.71082031 9.05765625 92.10914063 8.5078125 92.51953125 C7.76273438 93.04933594 7.01765625 93.57914063 6.25 94.125 C5.53070312 94.64707031 4.81140625 95.16914062 4.0703125 95.70703125 C-3.61258552 99.89492394 -11.30111066 100.81620229 -19.9375 100.75 C-20.86626953 100.76998047 -21.79503906 100.78996094 -22.75195312 100.81054688 C-31.21035432 100.80461115 -38.77336949 98.41413051 -44.875 92.3125 C-48.77348073 86.32554745 -49.50184452 79.76652462 -48.3125 72.8125 C-46.22673652 64.94972056 -41.60986739 58.83148857 -34.65234375 54.65234375 C-21.48276993 48.29908943 -5.46546395 45.11612982 9.125 45.3125 C9.01321931 41.7077998 8.88306974 38.10397211 8.75 34.5 C8.7190625 33.49517578 8.688125 32.49035156 8.65625 31.45507812 C8.46256057 19.17211324 8.46256057 19.17211324 3.875 8.1875 C-1.5659933 4.47773184 -6.67904701 5.17657528 -12.875 6.3125 C-13.535 6.9725 -14.195 7.6325 -14.875 8.3125 C-14.5857296 12.50692075 -13.9125155 16.28350792 -12.75 20.3125 C-11.30662762 25.88916603 -11.88752577 30.33755154 -14.5 35.5625 C-17.75118969 39.32703543 -20.90709932 41.8015848 -25.89453125 42.66015625 C-30.62979845 42.86839936 -33.96906399 41.91645734 -37.875 39.3125 C-41.7518902 35.38321939 -44.02398254 32.24709355 -44.1875 26.6875 C-44.09906658 20.55022097 -42.46322696 16.28755436 -38.4375 11.66015625 C-27.83136809 1.64042106 -13.90476072 -0.04018717 0 0 Z M-14.27734375 58.3046875 C-18.35153774 63.42482371 -19.1438237 68.57406397 -18.8125 75 C-18.00542037 81.14754268 -15.8947354 84.57458814 -11.1875 88.625 C-7.0493163 90.73313132 -3.51670153 91.53669667 1.125 91.3125 C5.22713689 89.82081386 6.69568209 88.95647687 9.125 85.3125 C9.29662025 82.62655085 9.35724552 80.04705099 9.3203125 77.36328125 C9.31606766 76.20435616 9.31606766 76.20435616 9.31173706 75.02201843 C9.30054878 72.55618757 9.27544703 70.09072094 9.25 67.625 C9.23996843 65.95247921 9.23084289 64.27995272 9.22265625 62.60742188 C9.20061392 58.50897441 9.16609363 54.41079894 9.125 50.3125 C0.10812527 50.2308395 -7.66506862 51.81461048 -14.27734375 58.3046875 Z " fill="#232323" transform="translate(536.875,428.6875)"/>
<path d="M0 0 C3.125 -0.1875 3.125 -0.1875 6 0 C13.82966365 16.59418746 21.58993952 33.21543877 29.152771 49.93307495 C35.56375818 64.09993824 42.09955019 78.2079639 48.65527344 92.30834961 C49.24339561 93.57418129 49.24339561 93.57418129 49.84339905 94.86558533 C50.57253669 96.43465149 51.30232641 98.00341489 52.03294373 99.5717926 C54.41169471 104.69026196 56.7184474 109.83744179 59 115 C62.3 115.33 65.6 115.66 69 116 C69 117.65 69 119.3 69 121 C50.52 121 32.04 121 13 121 C13 119.35 13 117.7 13 116 C16.96 116 20.92 116 25 116 C24.14535156 114.32550781 23.29070312 112.65101563 22.41015625 110.92578125 C21.2939533 108.72151493 20.17808533 106.51707896 19.0625 104.3125 C18.49853516 103.20970703 17.93457031 102.10691406 17.35351562 100.97070312 C16.81533203 99.90400391 16.27714844 98.83730469 15.72265625 97.73828125 C15.22515869 96.75899658 14.72766113 95.77971191 14.21508789 94.77075195 C13 92 13 92 12 87 C-2.19 87 -16.38 87 -31 87 C-31.33 88.65 -31.66 90.3 -32 92 C-32.71830682 93.92948262 -33.4839382 95.84172714 -34.28515625 97.73828125 C-34.73310547 98.80498047 -35.18105469 99.87167969 -35.64257812 100.97070312 C-36.11115234 102.07349609 -36.57972656 103.17628906 -37.0625 104.3125 C-37.53494141 105.43462891 -38.00738281 106.55675781 -38.49414062 107.71289062 C-39.65860194 110.47701597 -40.82875125 113.23874387 -42 116 C-36.72 116 -31.44 116 -26 116 C-26 117.65 -26 119.3 -26 121 C-37.88 121 -49.76 121 -62 121 C-62 119.35 -62 117.7 -62 116 C-57.38 116 -52.76 116 -48 116 C-47.63132813 114.65035156 -47.26265625 113.30070313 -46.8828125 111.91015625 C-44.97612035 105.57190314 -42.39043133 99.55165634 -39.76287842 93.4876709 C-38.19422148 89.86553667 -36.64507082 86.23505347 -35.09375 82.60546875 C-34.76410248 81.83526398 -34.43445496 81.0650592 -34.09481812 80.27151489 C-30.11650673 70.96084522 -26.24578706 61.60575293 -22.375 52.25 C-21.65408838 50.50950672 -20.9331413 48.76902813 -20.2121582 47.02856445 C-17.20070644 39.75554416 -14.19482732 32.48028194 -11.20465088 25.19848633 C-10.08426981 22.47042639 -8.96186714 19.74320016 -7.8394165 17.01599121 C-7.08295476 15.17478627 -6.33024306 13.33204203 -5.57763672 11.48925781 C-5.13049316 10.40225586 -4.68334961 9.31525391 -4.22265625 8.1953125 C-3.83859619 7.25703613 -3.45453613 6.31875977 -3.05883789 5.35205078 C-2 3 -2 3 0 0 Z M-12 42 C-14.28319312 47.37324605 -16.56173514 52.74843075 -18.8359375 58.12548828 C-19.61069381 59.95546008 -20.38673159 61.78488988 -21.1640625 63.61376953 C-22.27939619 66.23850252 -23.39014798 68.86513278 -24.5 71.4921875 C-24.84998047 72.31306854 -25.19996094 73.13394958 -25.56054688 73.97970581 C-27.34629721 77.85394814 -27.34629721 77.85394814 -28 82 C-15.79 82 -3.58 82 9 82 C3.0096146 68.47332328 -3.27454606 55.17553497 -10 42 C-10.66 42 -11.32 42 -12 42 Z " fill="#252525" transform="translate(178,407)"/>
<path d="M0 0 C3.61879466 3.89020426 4.74506149 7.57497709 5.09375 12.76171875 C4.91368194 17.06084378 3.5407281 20.41829509 0.53125 23.5078125 C-4.22253505 27.58581438 -7.27401383 28.44867236 -13.40234375 28.31640625 C-17.74246574 27.78775981 -20.2414996 26.39610999 -23 23 C-25.30374579 18.78072278 -27.21666635 14.46160031 -29 10 C-31.41127415 10.02147616 -31.41127415 10.02147616 -34 11 C-35.8380654 13.67859579 -35.8380654 13.67859579 -37.125 17.125 C-37.60195313 18.24132812 -38.07890625 19.35765625 -38.5703125 20.5078125 C-43.7009166 35.55390157 -43.53570102 50.70828601 -43.6875 66.4375 C-43.72073705 68.82618986 -43.7552324 71.21486255 -43.79101562 73.60351562 C-43.87518029 79.40224788 -43.94233126 85.2009462 -44 91 C-40.7 91 -37.4 91 -34 91 C-34 92.65 -34 94.3 -34 96 C-51.49 96 -68.98 96 -87 96 C-87 94.35 -87 92.7 -87 91 C-83.7 91 -80.4 91 -77 91 C-77 61.96 -77 32.92 -77 3 C-80.3 3 -83.6 3 -87 3 C-87 1.35 -87 -0.3 -87 -2 C-81.03686834 -2.02464574 -75.07376605 -2.042834 -69.1105957 -2.05493164 C-67.08031702 -2.05997278 -65.05004198 -2.06680557 -63.01977539 -2.07543945 C-60.10822653 -2.08751467 -57.1967255 -2.09323034 -54.28515625 -2.09765625 C-53.3716188 -2.10281754 -52.45808136 -2.10797882 -51.51686096 -2.11329651 C-49.34424573 -2.11349168 -47.17172704 -2.06211805 -45 -2 C-43.00383446 -0.00383446 -43.59016573 3.81701963 -43.4375 6.5625 C-43.39431641 7.27341797 -43.35113281 7.98433594 -43.30664062 8.71679688 C-43.20028223 10.47761912 -43.09961154 12.2387832 -43 14 C-42.6596875 13.34773438 -42.319375 12.69546875 -41.96875 12.0234375 C-37.84462794 4.58685571 -33.66465115 0.01220246 -25.8125 -3.375 C-16.83175644 -4.84725304 -7.77297835 -5.38904115 0 0 Z " fill="#272727" transform="translate(344,432)"/>
<path d="M0 0 C-0.99 0.66 -1.98 1.32 -3 2 C-1.68 2.66 -0.36 3.32 1 4 C1.33 16.54 1.66 29.08 2 42 C1.01 42 0.02 42 -1 42 C-0.01 42.33 0.98 42.66 2 43 C-0.09514178 47.93405888 -3.37298252 49.61477085 -8 52 C-15.0032337 54.75026086 -21.58608545 55.49481049 -29.0625 55.4375 C-30.4556543 55.4674707 -30.4556543 55.4674707 -31.87695312 55.49804688 C-40.33535432 55.49211115 -47.89836949 53.10163051 -54 47 C-57.89848073 41.01304745 -58.62684452 34.45402462 -57.4375 27.5 C-55.35173652 19.63722056 -50.73486739 13.51898857 -43.77734375 9.33984375 C-30.821952 3.08991496 -14.39746325 -0.55713198 0 0 Z M-23.40234375 12.9921875 C-27.47653774 18.11232371 -28.2688237 23.26156397 -27.9375 29.6875 C-27.13042037 35.83504268 -25.0197354 39.26208814 -20.3125 43.3125 C-16.1743163 45.42063132 -12.64170153 46.22419667 -8 46 C-3.89786311 44.50831386 -2.42931791 43.64397687 0 40 C0.17162025 37.31405085 0.23224552 34.73455099 0.1953125 32.05078125 C0.19106766 30.89185616 0.19106766 30.89185616 0.18673706 29.70951843 C0.17554878 27.24368757 0.15044703 24.77822094 0.125 22.3125 C0.11496843 20.63997921 0.10584289 18.96745272 0.09765625 17.29492188 C0.07561392 13.19647441 0.04109363 9.09829894 0 5 C-9.01687473 4.9183395 -16.79006862 6.50211048 -23.40234375 12.9921875 Z " fill="#292929" transform="translate(546,474)"/>
<path d="M0 0 C3.61879466 3.89020426 4.74506149 7.57497709 5.09375 12.76171875 C4.91368194 17.06084378 3.5407281 20.41829509 0.53125 23.5078125 C-4.22253505 27.58581438 -7.27401383 28.44867236 -13.40234375 28.31640625 C-17.74246574 27.78775981 -20.2414996 26.39610999 -23 23 C-25.30374579 18.78072278 -27.21666635 14.46160031 -29 10 C-31.42094753 10.06570542 -31.42094753 10.06570542 -34 11 C-35.69128734 13.51045996 -35.69128734 13.51045996 -36.8125 16.5625 C-37.23144531 17.57441406 -37.65039062 18.58632813 -38.08203125 19.62890625 C-38.38496094 20.41136719 -38.68789063 21.19382812 -39 22 C-40.98 22 -42.96 22 -45 22 C-45 14.41 -45 6.82 -45 -1 C-44.67 -1 -44.34 -1 -44 -1 C-43.67 3.95 -43.34 8.9 -43 14 C-42.175 12.47375 -41.35 10.9475 -40.5 9.375 C-36.72210563 3.09925076 -32.51091905 -0.4854859 -25.8125 -3.375 C-16.83175644 -4.84725304 -7.77297835 -5.38904115 0 0 Z " fill="#252525" transform="translate(344,432)"/>
<path d="M0 0 C13.2 0 26.4 0 40 0 C40 1.65 40 3.3 40 5 C39.03964844 4.80535156 38.07929688 4.61070312 37.08984375 4.41015625 C30.42079297 3.6568388 25.43691597 4.1660964 19.9375 8.3046875 C12.73993323 14.6141938 6.30958569 21.82047276 0 29 C-1.65 27.68 -3.3 26.36 -5 25 C1.27 18.73 7.54 12.46 14 6 C9.05 5.67 4.1 5.34 -1 5 C-0.67 3.35 -0.34 1.7 0 0 Z " fill="#414141" transform="translate(428,430)"/>
<path d="M0 0 C1.32 0.99 2.64 1.98 4 3 C3.46585373 8.72514527 1.83951338 13.23868689 -0.5625 18.4375 C-0.89185547 19.16904297 -1.22121094 19.90058594 -1.56054688 20.65429688 C-2.36577106 22.43979399 -3.18177846 24.22042155 -4 26 C-5.98 26 -7.96 26 -10 26 C-7.70175036 16.89455379 -3.8597477 8.5231689 0 0 Z " fill="#3D3D3D" transform="translate(155,461)"/>
<path d="M0 0 C13.2 0 26.4 0 40 0 C40 1.65 40 3.3 40 5 C32.41 5.33 24.82 5.66 17 6 C17 5.01 17 4.02 17 3 C16.34 3 15.68 3 15 3 C15 2.34 15 1.68 15 1 C10.05 1 5.1 1 0 1 C0 0.67 0 0.34 0 0 Z " fill="#757575" transform="translate(428,430)"/>
<path d="M0 0 C0.33 0 0.66 0 1 0 C1.33 4.95 1.66 9.9 2 15 C2.9075 13.39125 3.815 11.7825 4.75 10.125 C6.7725476 6.53957471 8.0884532 4.47958509 12 3 C12 6 12 6 11 9 C12.32 9.33 13.64 9.66 15 10 C14.39671875 10.21398437 13.7934375 10.42796875 13.171875 10.6484375 C10.21556828 12.48815355 9.58167654 14.44377271 8.25 17.625 C7.82203125 18.62789063 7.3940625 19.63078125 6.953125 20.6640625 C6.63859375 21.43492187 6.3240625 22.20578125 6 23 C4.02 23 2.04 23 0 23 C0 15.41 0 7.82 0 0 Z " fill="#575757" transform="translate(299,431)"/>
<path d="M0 0 C0.66 0.33 1.32 0.66 2 1 C1.38170447 6.07002337 0.13290367 9.02322476 -2 14 C3.28 14 8.56 14 14 14 C14 15.65 14 17.3 14 19 C2.12 19 -9.76 19 -22 19 C-22 18.67 -22 18.34 -22 18 C-10.45 18 1.1 18 13 18 C13 17.01 13 16.02 13 15 C7.72 15 2.44 15 -3 15 C-3.33 14.01 -3.66 13.02 -4 12 C-5.98 12.99 -5.98 12.99 -8 14 C-7.52309796 12.37433394 -7.04340334 10.74948689 -6.5625 9.125 C-6.29566406 8.22007812 -6.02882812 7.31515625 -5.75390625 6.3828125 C-4.45555337 2.27921013 -4.45555337 2.27921013 -2.0625 0.8125 C-1.381875 0.544375 -0.70125 0.27625 0 0 Z " fill="#5A5A5A" transform="translate(138,509)"/>
<path d="M0 0 C1 4 1 4 1 8 C-0.78334978 10.07285461 -2.51627166 11.89299632 -4.5 13.75 C-5.02464844 14.25660156 -5.54929687 14.76320313 -6.08984375 15.28515625 C-7.38441363 16.53265087 -8.6910776 17.76757307 -10 19 C-11.65 17.68 -13.3 16.36 -15 15 C-10.05 10.05 -5.1 5.1 0 0 Z " fill="#575757" transform="translate(438,440)"/>
<path d="M0 0 C0.66 0 1.32 0 2 0 C0.25192871 5.46737191 -1.65794081 10.75824848 -4 16 C-4.99 15.67 -5.98 15.34 -7 15 C-7.99 15.33 -8.98 15.66 -10 16 C-9.54636829 14.41531323 -9.08688548 12.83230076 -8.625 11.25 C-8.36976563 10.36828125 -8.11453125 9.4865625 -7.8515625 8.578125 C-7.0790066 6.23919428 -6.16374324 4.16557438 -5 2 C-3.35 2.33 -1.7 2.66 0 3 C0 2.01 0 1.02 0 0 Z " fill="#404040" transform="translate(145,495)"/>
<path d="M0 0 C4.62 0 9.24 0 14 0 C14 1.32 14 2.64 14 4 C9.38 4 4.76 4 0 4 C0 2.68 0 1.36 0 0 Z " fill="#292929" transform="translate(116,523)"/>
<path d="M0 0 C0 4.92961622 -3.74251216 7.53968744 -7 11 C-7.68320312 11.73605469 -8.36640625 12.47210938 -9.0703125 13.23046875 C-12.57017515 16.88336722 -15.13725565 19.3342156 -20 21 C-15.76183463 15.93376232 -11.32591037 11.19961931 -6.625 6.5625 C-5.98433594 5.92634766 -5.34367187 5.29019531 -4.68359375 4.63476562 C-3.12469121 3.08749668 -1.56348584 1.54263508 0 0 Z " fill="#646464" transform="translate(422,456)"/>
<path d="M0 0 C5.61 0 11.22 0 17 0 C17 0.99 17 1.98 17 3 C11.72 3 6.44 3 1 3 C0.67 2.01 0.34 1.02 0 0 Z " fill="#1B1B1B" transform="translate(450,431)"/>
<path d="M0 0 C0.66 0.33 1.32 0.66 2 1 C1.69381595 4.67420866 1.24228216 5.78135513 -1.5625 8.3125 C-2.366875 8.869375 -3.17125 9.42625 -4 10 C-5.32 8.68 -6.64 7.36 -8 6 C-5.54080489 3.3651481 -3.42227589 1.25483449 0 0 Z " fill="#444444" transform="translate(431,449)"/>
<path d="M0 0 C4.95 0 9.9 0 15 0 C15 0.66 15 1.32 15 2 C15.66 2.33 16.32 2.66 17 3 C11.39 3 5.78 3 0 3 C0 2.01 0 1.02 0 0 Z " fill="#1B1B1B" transform="translate(428,431)"/>
<path d="M0 0 C2 1 2 1 2 1 Z M-12 1 C-8.04 1 -4.08 1 0 1 C0 1.99 0 2.98 0 4 C-3.96 4 -7.92 4 -12 4 C-12 3.01 -12 2.02 -12 1 Z " fill="#1B1B1B" transform="translate(204,523)"/>
<path d="M0 0 C3.99197594 2.04993359 6.17697717 3.8475591 8 8 C7.6875 10.3125 7.6875 10.3125 7 12 C5.5 10.625 5.5 10.625 4 9 C4 8.34 4 7.68 4 7 C3.34 6.67 2.68 6.34 2 6 C2 5.34 2 4.68 2 4 C1.34 4 0.68 4 0 4 C0 2.68 0 1.36 0 0 Z " fill="#484848" transform="translate(340,430)"/>
<path d="M0 0 C0.33 0.99 0.66 1.98 1 3 C6.61 3 12.22 3 18 3 C17 7 17 7 15 9 C14.01 8.67 13.02 8.34 12 8 C12.99 7.01 13.98 6.02 15 5 C10.05 4.67 5.1 4.34 0 4 C0 2.68 0 1.36 0 0 Z " fill="#6F6F6F" transform="translate(427,431)"/>
<path d="M0 0 C-0.33 2.31 -0.66 4.62 -1 7 C-1.99 6.67 -2.98 6.34 -4 6 C-4.99 6.33 -5.98 6.66 -7 7 C-6.6875 4.625 -6.6875 4.625 -6 2 C-3 0 -3 0 0 0 Z " fill="#363636" transform="translate(142,504)"/>
<path d="M0 0 C0 3.77910478 -0.99703962 4.46106101 -3.5 7.1875 C-4.1496875 7.90292969 -4.799375 8.61835938 -5.46875 9.35546875 C-5.9740625 9.89816406 -6.479375 10.44085938 -7 11 C-7.99 10.67 -8.98 10.34 -10 10 C-6.7 6.7 -3.4 3.4 0 0 Z " fill="#707070" transform="translate(422,456)"/>
<path d="M0 0 C2.64 0 5.28 0 8 0 C7.67 1.32 7.34 2.64 7 4 C5.68 4.33 4.36 4.66 3 5 C2.87625 4.360625 2.7525 3.72125 2.625 3.0625 C2.315625 2.0415625 2.315625 2.0415625 2 1 C1.34 0.67 0.68 0.34 0 0 Z " fill="#5A5A5A" transform="translate(583,521)"/>
<path d="M0 0 C-1.65 0.33 -3.3 0.66 -5 1 C-5 1.66 -5 2.32 -5 3 C-5.66 3 -6.32 3 -7 3 C-7.33 3.66 -7.66 4.32 -8 5 C-8.66 5 -9.32 5 -10 5 C-9.8125 3.125 -9.8125 3.125 -9 1 C-5.6868424 -0.8804408 -3.58825658 -1.32898392 0 0 Z " fill="#4F4F4F" transform="translate(322,430)"/>
<path d="M0 0 C1.32 0.99 2.64 1.98 4 3 C3.67 4.32 3.34 5.64 3 7 C1.68 6.67 0.36 6.34 -1 6 C-0.67 4.02 -0.34 2.04 0 0 Z " fill="#333333" transform="translate(155,461)"/>
<path d="M0 0 C1.65 0 3.3 0 5 0 C5.33 1.32 5.66 2.64 6 4 C5.01 4.66 4.02 5.32 3 6 C0 2.25 0 2.25 0 0 Z " fill="#3D3D3D" transform="translate(408,489)"/>
<path d="M0 0 C0.66 0 1.32 0 2 0 C1.34 2.31 0.68 4.62 0 7 C-3 6 -3 6 -4.1875 3.9375 C-4.5896875 2.9784375 -4.5896875 2.9784375 -5 2 C-2.525 2.495 -2.525 2.495 0 3 C0 2.01 0 1.02 0 0 Z " fill="#474747" transform="translate(145,495)"/>
<path d="M0 0 C0 2.62113708 -0.31292445 4.50935112 -1 7 C-1.99 6.34 -2.98 5.68 -4 5 C-3.6875 3.0625 -3.6875 3.0625 -3 1 C-2.01 0.67 -1.02 0.34 0 0 Z " fill="#2B2B2B" transform="translate(442,439)"/>
<path d="M0 0 C1.65 0.99 3.3 1.98 5 3 C4.67 3.99 4.34 4.98 4 6 C3.34 6 2.68 6 2 6 C2 5.34 2 4.68 2 4 C1.34 4 0.68 4 0 4 C0 2.68 0 1.36 0 0 Z " fill="#545454" transform="translate(340,430)"/>
<path d="M0 0 C0.99 0.33 1.98 0.66 3 1 C0.47043472 4.0916909 -2.22454612 4.90931332 -6 6 C-4 4 -2 2 0 0 Z " fill="#666666" transform="translate(501,484)"/>
<path d="" fill="#929292" transform="translate(0,0)"/>
<path d="" fill="#929292" transform="translate(0,0)"/>
<path d="" fill="#979797" transform="translate(0,0)"/>
<path d="" fill="#959595" transform="translate(0,0)"/>
<path d="" fill="#AAAAAA" transform="translate(0,0)"/>
</svg>
