<?xml version="1.0" encoding="UTF-8"?>
<svg version="1.1" xmlns="http://www.w3.org/2000/svg" width="710" height="587">
<path d="M0 0 C234.3 0 468.6 0 710 0 C710 193.71 710 387.42 710 587 C475.7 587 241.4 587 0 587 C0 393.29 0 199.58 0 0 Z " fill="#FEFEFE" transform="translate(0,0)"/>
<path d="M0 0 C3.64567713 -0.08816905 7.29107474 -0.14077948 10.9375 -0.1875 C12.46987305 -0.22520508 12.46987305 -0.22520508 14.03320312 -0.26367188 C21.57298 -0.33593811 28.53807177 0.17760355 34.55859375 5.0859375 C35.17863281 5.84132812 35.79867187 6.59671875 36.4375 7.375 C37.39462891 8.50035156 37.39462891 8.50035156 38.37109375 9.6484375 C41.2199963 13.76124167 42.24898763 17.30499443 42.26742554 22.28619385 C42.28022049 23.85464806 42.28022049 23.85464806 42.29327393 25.45478821 C42.29191437 27.15987801 42.29191437 27.15987801 42.29052734 28.89941406 C42.29724457 30.10488388 42.30396179 31.3103537 42.31088257 32.55235291 C42.32661139 35.85221986 42.33323685 39.15183509 42.33451414 42.45172215 C42.33593826 44.51672245 42.34021285 46.58169658 42.34550858 48.64669037 C42.36400211 55.86066861 42.37218034 63.07457306 42.37060547 70.28857422 C42.36940534 76.99658579 42.39048383 83.70427494 42.4220928 90.41220498 C42.44831402 96.18396388 42.45897028 101.95561788 42.45769465 107.72743583 C42.45718658 111.16899442 42.46278265 114.61026656 42.48405075 118.05176544 C42.50369613 121.89578298 42.49787684 125.73897635 42.48583984 129.58300781 C42.49707886 130.71163742 42.50831787 131.84026703 42.51989746 133.00309753 C42.45761112 140.85046599 41.14892973 147.18176335 36.0703125 153.33984375 C35.42835938 153.86707031 34.78640625 154.39429688 34.125 154.9375 C33.48820313 155.48277344 32.85140625 156.02804687 32.1953125 156.58984375 C25.8436998 160.66979426 19.25818603 160.29634801 11.97119141 160.29052734 C10.1603582 160.30060318 10.1603582 160.30060318 8.3129425 160.31088257 C5.01320186 160.32659344 1.71371296 160.33323567 -1.58604765 160.33451414 C-3.65087802 160.33593918 -5.71568227 160.34021543 -7.78050613 160.34550858 C-14.99333614 160.36399081 -22.20609241 160.37218138 -29.41894531 160.37060547 C-36.12756544 160.36940426 -42.83586376 160.39050693 -49.54440248 160.4220928 C-55.31701517 160.44829723 -61.08952299 160.45897104 -66.86219466 160.45769465 C-70.30426532 160.45718627 -73.7460497 160.46279999 -77.18806076 160.48405075 C-81.02963435 160.50712284 -84.87077088 160.49788673 -88.71240234 160.48583984 C-89.84305618 160.49707886 -90.97371002 160.50831787 -92.1386261 160.51989746 C-99.89185665 160.45819369 -105.21274039 159.25941855 -111.2421875 154.0703125 C-111.78101563 153.42835938 -112.31984375 152.78640625 -112.875 152.125 C-113.42929687 151.48820313 -113.98359375 150.85140625 -114.5546875 150.1953125 C-118.69032547 143.91361375 -118.27271639 137.43986339 -118.1875 130.1875 C-118.18685547 129.12595703 -118.18621094 128.06441406 -118.18554688 126.97070312 C-118.1404591 119.1404591 -118.1404591 119.1404591 -117 118 C-113.87645723 117.89587344 -110.77429657 117.8563926 -107.65014648 117.8581543 C-106.6679866 117.85467987 -105.68582672 117.85120544 -104.67390442 117.84762573 C-102.53221139 117.84025238 -100.39051064 117.83491546 -98.24880791 117.83133507 C-94.85656875 117.82418815 -91.46447582 117.80853311 -88.07228088 117.78999329 C-78.42410337 117.73745306 -68.7760029 117.68957494 -59.12768555 117.67407227 C-53.2325029 117.66397733 -47.33768323 117.63460786 -41.44264412 117.59275246 C-39.19687715 117.58045288 -36.95105886 117.57531928 -34.70525932 117.57755089 C-31.5549861 117.57990991 -28.4057483 117.55768849 -25.25561523 117.5300293 C-24.33217316 117.53663071 -23.40873108 117.54323212 -22.45730591 117.55003357 C-15.72648162 117.4533316 -10.06543275 116.02638265 -5.16015625 111.18359375 C-4.79792969 110.60738281 -4.43570313 110.03117187 -4.0625 109.4375 C-3.68222656 108.85871094 -3.30195313 108.27992188 -2.91015625 107.68359375 C-1.2704431 104.6504763 -0.87058839 102.10758169 -0.84178162 98.72895813 C-0.8319928 97.85817627 -0.82220398 96.98739441 -0.81211853 96.09022522 C-0.80636307 95.13788498 -0.8006076 94.18554474 -0.79467773 93.2043457 C-0.78477814 92.19928986 -0.77487854 91.19423401 -0.76467896 90.15872192 C-0.73304922 86.83109913 -0.70830061 83.50346206 -0.68359375 80.17578125 C-0.6630255 77.87077968 -0.64202907 75.56578189 -0.62062073 73.26078796 C-0.56538674 67.18959616 -0.51598327 61.11837024 -0.46777344 55.04711914 C-0.41756814 48.85364745 -0.361877 42.66022538 -0.30664062 36.46679688 C-0.1990428 24.3112403 -0.09760139 12.15564066 0 0 Z " fill="#1C1C1C" transform="translate(430,179)"/>
<path d="M0 0 C1.21376312 -0.00992981 2.42752625 -0.01985962 3.67807007 -0.03009033 C6.99652655 -0.05423599 10.31473219 -0.06920469 13.63324642 -0.07811165 C15.7108231 -0.08399234 17.78837818 -0.09220548 19.86594391 -0.10112 C26.37889392 -0.12843865 32.89179401 -0.14778719 39.40479732 -0.15552378 C46.89974194 -0.16447811 54.39395578 -0.19955296 61.88867831 -0.25752497 C67.69783962 -0.30088516 73.50679626 -0.320939 79.31611753 -0.32360601 C82.77854422 -0.32569317 86.24028255 -0.33731279 89.70253754 -0.37324524 C93.5701559 -0.41260725 97.43687446 -0.4035795 101.3046875 -0.390625 C103.00390854 -0.41826935 103.00390854 -0.41826935 104.73745728 -0.44647217 C112.46284384 -0.36569584 118.03617749 1.13891625 123.91113281 6.32226562 C130.25200282 13.39363221 130.70201284 20.27657784 130.28613281 29.44726562 C130.24552734 31.16816406 130.24552734 31.16816406 130.20410156 32.92382812 C130.13406388 35.72533555 130.03591107 38.52275355 129.91113281 41.32226562 C128.66356201 41.32813187 127.41599121 41.33399811 126.13061523 41.34004211 C114.36006494 41.39731285 102.58969863 41.47009751 90.81933594 41.55798054 C84.76840553 41.60266346 78.71754214 41.64192441 72.66650391 41.66870117 C66.82437436 41.69475452 60.98250296 41.7351719 55.14053345 41.78545189 C52.91430884 41.80210675 50.6880396 41.8136296 48.46176147 41.81987953 C45.33784064 41.82953538 42.21457821 41.85761342 39.09082031 41.88989258 C37.71732674 41.88773994 37.71732674 41.88773994 36.31608582 41.88554382 C29.91635625 41.9787574 23.98732333 42.76273259 18.88769531 47.00585938 C18.21867187 47.87404297 18.21867187 47.87404297 17.53613281 48.75976562 C17.07464844 49.33597656 16.61316406 49.9121875 16.13769531 50.50585938 C13.82022517 53.93778172 12.66320974 56.53841898 12.63265991 60.71356201 C12.62149643 61.58571854 12.61033295 62.45787506 12.59883118 63.35646057 C12.59667099 64.30520554 12.5945108 65.2539505 12.59228516 66.23144531 C12.57721672 67.73924812 12.57721672 67.73924812 12.56184387 69.2775116 C12.53095563 72.59971546 12.51396089 75.92183853 12.49707031 79.24414062 C12.47836322 81.54771625 12.45879016 83.85128499 12.43838501 86.15484619 C12.38700942 92.21779323 12.34741264 98.28076249 12.3102417 104.34381104 C12.27023614 110.53069584 12.21912806 116.71748773 12.16894531 122.90429688 C12.07212172 135.04355458 11.98773744 147.18286468 11.91113281 159.32226562 C7.74484076 159.46855397 3.57921684 159.55666983 -0.58886719 159.63476562 C-2.3484375 159.69760742 -2.3484375 159.69760742 -4.14355469 159.76171875 C-11.47409588 159.86467579 -16.4910011 159.27111648 -22.08886719 154.32226562 C-26.06921703 150.43118145 -28.78443274 146.35641857 -29.34892941 140.73034954 C-29.35357991 139.80143304 -29.35823042 138.87251654 -29.36302185 137.91545105 C-29.37299698 136.84312729 -29.38297211 135.77080353 -29.39324951 134.66598511 C-29.39391418 133.49963531 -29.39457886 132.33328552 -29.39526367 131.1315918 C-29.40358719 129.89525497 -29.41191071 128.65891815 -29.42048645 127.38511658 C-29.44043722 124.00061656 -29.45122412 120.61636239 -29.45631289 117.23182464 C-29.45996208 115.11456919 -29.46620507 112.99733719 -29.47331429 110.88009071 C-29.49779334 103.48572379 -29.51085721 96.09142685 -29.5144043 88.69702148 C-29.51803785 81.81738308 -29.54792373 74.93819127 -29.58980888 68.0586893 C-29.62456364 62.14172415 -29.63995363 56.22490664 -29.64065033 50.30784017 C-29.64144143 46.77849235 -29.65010181 43.24959973 -29.67864799 39.72035789 C-29.70980464 35.78043913 -29.70074412 31.84115649 -29.68823242 27.90112305 C-29.70306671 26.74084595 -29.717901 25.58056885 -29.73318481 24.38513184 C-29.6619646 16.50143218 -28.10174189 11.5411199 -22.6461401 5.80548382 C-15.91516808 -0.31058143 -8.58039676 0.01681406 0 0 Z " fill="#1C1C1C" transform="translate(264.0888671875,101.677734375)"/>
<path d="M0 0 C13.86 0 27.72 0 42 0 C42.33 29.7 42.66 59.4 43 90 C56.53 76.47 70.06 62.94 84 49 C79.05 48.67 74.1 48.34 69 48 C69 46.68 69 45.36 69 44 C82.2 44 95.4 44 109 44 C109 45.32 109 46.64 109 48 C107.96746094 47.80535156 106.93492187 47.61070312 105.87109375 47.41015625 C98.96138476 46.68041536 93.6272115 47.05300074 87.89013672 51.3046875 C80.67698801 57.57946546 74.27044013 64.8029971 68 72 C69.69646965 77.17309713 72.75858661 81.38526656 75.78515625 85.8515625 C76.36027451 86.70624115 76.93539276 87.5609198 77.52793884 88.4414978 C78.74699014 90.2501814 79.96844925 92.05724413 81.19213867 93.86279297 C83.03861983 96.58973303 84.87428907 99.32371478 86.70898438 102.05859375 C99.4399727 122.83956371 99.4399727 122.83956371 119 136 C119 137.32 119 138.64 119 140 C80.37116301 140.72558139 80.37116301 140.72558139 66.421875 127.69140625 C58.62452078 119.02628197 52.26826225 108.8537926 46.40234375 98.80859375 C45.93957031 98.21175781 45.47679687 97.61492187 45 97 C44.01 97 43.02 97 42 97 C42 109.87 42 122.74 42 136 C45.3 136 48.6 136 52 136 C52 137.65 52 139.3 52 141 C34.84 141 17.68 141 0 141 C0 139.35 0 137.7 0 136 C3.3 136 6.6 136 10 136 C10 92.44 10 48.88 10 4 C6.7 4 3.4 4 0 4 C0 2.68 0 1.36 0 0 Z " fill="#202020" transform="translate(359,387)"/>
<path d="M0 0 C1.0828125 0.41572266 1.0828125 0.41572266 2.1875 0.83984375 C8.19503579 3.64940252 11.6440272 9.40000728 13.90805054 15.41079712 C16.05354089 22.8602058 16.4555569 29.86127582 16.4765625 37.5859375 C16.49214203 38.84588531 16.50772156 40.10583313 16.52377319 41.40396118 C16.56297706 44.71947745 16.59047759 48.03478986 16.61126709 51.35046387 C16.64305842 56.03721218 16.69455149 60.72376058 16.74765015 65.41030884 C16.7747532 67.89769845 16.79615752 70.38515829 16.81118774 72.87265015 C16.82144989 73.9979715 16.83171204 75.12329285 16.84228516 76.28271484 C16.84878082 77.2687973 16.85527649 78.25487976 16.86196899 79.27084351 C16.95360755 82.40215528 16.95360755 82.40215528 18 87 C21.3 87.66 24.6 88.32 28 89 C27 92 27 92 25.41796875 92.94921875 C19.27140319 94.98372119 13.29765183 95.34617709 6.875 95.4375 C5.60499146 95.47073364 5.60499146 95.47073364 4.30932617 95.50463867 C-1.59206271 95.48450527 -6.07312706 94.32748323 -11 91 C-13 88.75 -13 88.75 -14 87 C-16.11390334 88.04725487 -18.21284979 89.1129407 -20.296875 90.21875 C-21.10640625 90.6415625 -21.9159375 91.064375 -22.75 91.5 C-23.54921875 91.9228125 -24.3484375 92.345625 -25.171875 92.78125 C-35.06345633 97.04392041 -47.54415436 97.78208197 -58.0234375 95.27734375 C-60.21300167 94.35443871 -62.05285329 93.35549669 -64 92 C-64.57878906 91.61457031 -65.15757812 91.22914063 -65.75390625 90.83203125 C-69.46408284 88.06951423 -71.24190806 85.21136064 -73 81 C-73.87585125 74.19834434 -74.1346055 66.81027272 -70.44140625 60.80078125 C-59.78712109 47.49014315 -44.12182712 44.27449754 -28 42 C-24.00407139 41.59993369 -20.00622454 41.27706278 -16 41 C-16.0817642 36.70760517 -16.19452716 32.41654026 -16.3125 28.125 C-16.34633789 26.31902344 -16.34633789 26.31902344 -16.38085938 24.4765625 C-16.59171919 17.4223434 -16.82124674 10.43740337 -20 4 C-23.46760298 0.83801626 -26.52427187 0.59040806 -31.125 0.625 C-32.15882813 0.61726563 -33.19265625 0.60953125 -34.2578125 0.6015625 C-36.99879967 0.78591358 -36.99879967 0.78591358 -38.84765625 2.3203125 C-40.78698172 5.14712589 -40.27774141 7.66710308 -40 11 C-39.505 12.7015625 -39.505 12.7015625 -39 14.4375 C-37.52423229 19.69492247 -37.26696057 23.92305495 -39.125 29.1875 C-41.37867036 32.56800555 -43.28084035 35.28569985 -47 37 C-52.62361514 37.9685115 -58.13118127 38.09564242 -63.0625 34.9375 C-67.46796722 31.11226504 -68.77765729 26.75094881 -69.5 21.0625 C-69.24689402 15.37311776 -66.19359659 11.21358381 -62.28515625 7.26953125 C-46.12497316 -7.05185639 -19.41786278 -7.91608895 0 0 Z " fill="#1F1F1F" transform="translate(562,433)"/>
<path d="M0 0 C1.95145683 0.00022659 1.95145683 0.00022659 3.94233704 0.00045776 C5.35242874 0.01066954 6.76251886 0.02110151 8.17260742 0.03173828 C9.62277532 0.0354712 11.07294574 0.03831685 12.52311707 0.04031372 C16.32895951 0.04792829 20.13464787 0.06755789 23.94042969 0.08972168 C27.82834794 0.11022715 31.71629123 0.11932547 35.60424805 0.12939453 C43.22476079 0.150806 50.84514684 0.18491544 58.46557617 0.22705078 C58.55853099 8.69415987 58.62946939 17.16105337 58.67282486 25.62854767 C58.69364044 29.56098033 58.72184624 33.49306217 58.76733398 37.42529297 C58.81100917 41.22490352 58.83475856 45.02417805 58.84508514 48.82402039 C58.85243791 50.26882715 58.86679586 51.71361692 58.8884964 53.15827942 C59.01810128 62.14946709 58.86238801 69.1318639 52.71948242 76.25048828 C52.16131836 76.69650391 51.6031543 77.14251953 51.02807617 77.60205078 C50.19469727 78.29427734 50.19469727 78.29427734 49.34448242 79.00048828 C44.90229159 81.90038001 41.09921655 82.47421575 35.83935547 82.45410156 C34.87265678 82.45453964 34.87265678 82.45453964 33.88642883 82.45498657 C31.77074396 82.45360083 29.65541775 82.43807585 27.53979492 82.42236328 C26.06720675 82.41863045 24.59461609 82.41578475 23.12202454 82.41378784 C19.25699945 82.40617261 15.39212604 82.38654241 11.52716064 82.36437988 C7.57891898 82.34387586 3.63065267 82.3347764 -0.31762695 82.32470703 C-8.05662819 82.30329438 -15.79550471 82.26918412 -23.53442383 82.22705078 C-23.65061692 73.75997351 -23.73928916 65.29323305 -23.79348469 56.82555389 C-23.81950485 52.89301762 -23.85476156 48.96102947 -23.91162109 45.02880859 C-23.96621536 41.22917852 -23.99590131 37.4300734 -24.00881004 33.63008118 C-24.0180012 32.18524417 -24.03594939 30.74043375 -24.06307411 29.29582214 C-24.23745209 19.61800674 -23.3090197 13.46696744 -16.69067383 6.20361328 C-16.14411133 5.75759766 -15.59754883 5.31158203 -15.03442383 4.85205078 C-14.48786133 4.39056641 -13.94129883 3.92908203 -13.37817383 3.45361328 C-9.00426323 0.54385072 -5.19987804 -0.0201937 0 0 Z " fill="#1C1C1C" transform="translate(335.534423828125,178.77294921875)"/>
<path d="M0 0 C1.65 0 3.3 0 5 0 C10.88123757 11.57375631 16.44436107 23.27144819 21.875 35.0625 C22.6987701 36.84652999 23.52274893 38.63046362 24.34692383 40.41430664 C26.04819765 44.09753582 27.74801399 47.78143263 29.44677734 51.46582031 C31.53928567 56.00319641 33.63633622 60.53845206 35.7355957 65.07270813 C37.33838026 68.53462906 38.93995854 71.99710725 40.5413208 75.45968628 C41.29011815 77.07843869 42.03924914 78.6970368 42.78875732 80.31546021 C46.74374785 88.8580371 50.66461993 97.41564536 54.51953125 106.00390625 C54.86908371 106.77604965 55.21863617 107.54819305 55.57878113 108.34373474 C58 113.76807642 58 113.76807642 58 116 C61.63 116 65.26 116 69 116 C69 117.65 69 119.3 69 121 C50.52 121 32.04 121 13 121 C13 119.35 13 117.7 13 116 C16.96 116 20.92 116 25 116 C24.22914063 114.39769531 23.45828125 112.79539062 22.6640625 111.14453125 C21.65095701 109.0338948 20.63794084 106.92321547 19.625 104.8125 C19.11710937 103.75740234 18.60921875 102.70230469 18.0859375 101.61523438 C17.59609375 100.59365234 17.10625 99.57207031 16.6015625 98.51953125 C16.15119629 97.58214111 15.70083008 96.64475098 15.23681641 95.67895508 C14.07248375 93.15700044 13.0316325 90.57908125 12 88 C-2.19 87.67 -16.38 87.34 -31 87 C-31.99 89.97 -32.98 92.94 -34 96 C-34.66157082 97.75872961 -35.33914549 99.51165523 -36.04296875 101.25390625 C-36.39423828 102.12724609 -36.74550781 103.00058594 -37.10742188 103.90039062 C-37.46384766 104.77888672 -37.82027344 105.65738281 -38.1875 106.5625 C-38.55552734 107.47580078 -38.92355469 108.38910156 -39.30273438 109.33007812 C-40.19943087 111.55435125 -41.09937405 113.77731504 -42 116 C-36.72 116 -31.44 116 -26 116 C-26 117.65 -26 119.3 -26 121 C-37.88 121 -49.76 121 -62 121 C-62 119.35 -62 117.7 -62 116 C-57.38 116 -52.76 116 -48 116 C-47.57775146 114.69232666 -47.15550293 113.38465332 -46.72045898 112.03735352 C-45.17196745 107.3975351 -43.38259401 102.9032923 -41.47265625 98.40234375 C-41.13155823 97.59066742 -40.79046021 96.77899109 -40.43902588 95.94271851 C-39.31648376 93.27305282 -38.18946487 90.6053013 -37.0625 87.9375 C-35.85899065 85.07847555 -34.6566925 82.21894382 -33.45451355 79.35935974 C-32.61292103 77.35755152 -31.77096537 75.35589593 -30.92866516 73.35438538 C-27.80499222 65.92829012 -24.7020505 58.49374085 -21.609375 51.0546875 C-21.16544907 49.98716751 -20.72152313 48.91964752 -20.2641449 47.81977844 C-18.52488744 43.6366009 -16.78596588 39.45328614 -15.04934692 35.26901245 C-10.14762982 23.46052309 -5.18174762 11.68861869 0 0 Z " fill="#222222" transform="translate(178,407)"/>
<path d="M0 0 C3.2614436 2.81079917 4.74429547 5.4292436 5.4375 9.6875 C5.63297462 14.18341615 5.3119396 17.31373287 3.4375 21.4375 C-0.5034934 25.58059562 -4.2313797 28.16551891 -10.0625 28.5 C-14.57982179 27.92637184 -16.5706672 26.96169651 -20 24 C-23.33262063 19.68719684 -25.66176906 14.90033506 -28 10 C-29.32 10 -30.64 10 -32 10 C-41.64567891 21.62427971 -43.08796324 39.16531084 -43.31640625 53.62109375 C-43.33718735 54.72099136 -43.35796844 55.82088898 -43.37937927 56.95411682 C-43.4444742 60.4485177 -43.50357269 63.94299021 -43.5625 67.4375 C-43.60572335 69.81446037 -43.64933883 72.19141364 -43.69335938 74.56835938 C-43.80011431 80.37883388 -43.90149344 86.18938004 -44 92 C-40.7 92 -37.4 92 -34 92 C-34 92.99 -34 93.98 -34 95 C-50.83 95 -67.66 95 -85 95 C-85 94.01 -85 93.02 -85 92 C-81.7 92 -78.4 92 -75 92 C-75 62.63 -75 33.26 -75 3 C-78.63 3 -82.26 3 -86 3 C-86 1.68 -86 0.36 -86 -1 C-72.14 -1 -58.28 -1 -44 -1 C-43.67 5.6 -43.34 12.2 -43 19 C-41.02 13.555 -41.02 13.555 -39 8 C-38.34 8 -37.68 8 -37 8 C-36.61908203 7.10667969 -36.61908203 7.10667969 -36.23046875 6.1953125 C-33.56696856 1.44328994 -28.5997266 -1.33596254 -23.6875 -3.375 C-15.16166739 -4.82005637 -7.40133098 -4.98366174 0 0 Z " fill="#1D1D1D" transform="translate(343,432)"/>
<path d="M0 0 C1.26384521 0.00773437 2.52769043 0.01546875 3.82983398 0.0234375 C3.95354795 5.07705771 4.04422445 10.12979452 4.10449219 15.18457031 C4.12961766 16.90347651 4.16372446 18.62227606 4.20703125 20.34082031 C4.26777427 22.81341864 4.2960616 25.28460356 4.31811523 27.7578125 C4.34392166 28.52462341 4.36972809 29.29143433 4.39631653 30.08148193 C4.39836814 33.99530961 4.21372453 35.63179356 1.42431641 38.47753906 C-2.9003679 41.05436235 -6.17531544 41.38985511 -11.17016602 41.0234375 C-16.67685212 39.61475036 -19.72549689 36.01608457 -22.98266602 31.5234375 C-25.10152183 25.27838878 -25.54841938 18.58914602 -23.13891602 12.35546875 C-19.34881817 6.07022315 -13.94327606 2.33338194 -6.89282227 0.3984375 C-4.52830525 0.07276514 -2.37832329 -0.01455467 0 0 Z " fill="#FCFCFC" transform="translate(542.170166015625,478.9765625)"/>
<path d="M0 0 C0.66 0 1.32 0 2 0 C7.31769023 10.53979145 12.62987984 21.08231556 17.6875 31.75 C18.02587891 32.45761475 18.36425781 33.16522949 18.71289062 33.89428711 C21 38.75922986 21 38.75922986 21 41 C8.79 41 -3.42 41 -16 41 C-15.31985775 37.59928876 -14.79847932 35.19302224 -13.50952148 32.12768555 C-13.20928574 31.40731613 -12.90904999 30.68694672 -12.59971619 29.94474792 C-12.27677078 29.1830983 -11.95382538 28.42144867 -11.62109375 27.63671875 C-11.28956802 26.84473587 -10.9580423 26.05275299 -10.61647034 25.23677063 C-9.5611488 22.71850164 -8.49942502 20.2029905 -7.4375 17.6875 C-6.71897637 15.97608969 -6.00087265 14.26450302 -5.28320312 12.55273438 C-3.52699356 8.36643081 -1.7650389 4.18258814 0 0 Z " fill="#FBFBFB" transform="translate(166,448)"/>
</svg>
